<?xml version="1.0" encoding="UTF-8"?>
<svg width="183px" height="62px" viewBox="0 0 183 62" version="1.1" xmlns="http://www.w3.org/2000/svg" xmlns:xlink="http://www.w3.org/1999/xlink">
    <!-- Generator: Sketch 47.1 (45422) - http://www.bohemiancoding.com/sketch -->
    <title>appstore</title>
    <desc>Created with Sketch.</desc>
    <defs></defs>
    <g id="Page-1" stroke="none" stroke-width="1" fill="none" fill-rule="evenodd">
        <g id="Desktop-HD" transform="translate(-118.000000, -598.000000)">
            <g id="appstore" transform="translate(118.000000, 598.000000)">
                <g id="Group-11">
                    <rect id="background" fill="#000000" x="0" y="0" width="182.597561" height="62" rx="10"></rect>
                    <path d="M40.0594765,29.112564 C40.0196919,24.6776579 43.6798744,22.5200616 43.8472441,22.4196123 C41.7743296,19.3882446 38.5613808,18.9740632 37.4323215,18.9410387 C34.7338286,18.656203 32.1162768,20.560612 30.7416505,20.560612 C29.3395866,20.560612 27.2227719,18.9685591 24.9413313,19.0153437 C22.0055028,19.0607523 19.258994,20.7656386 17.752667,23.4130973 C14.6439813,28.8112161 16.9624627,36.74396 19.9408196,41.1073132 C21.430684,43.2456452 23.1716029,45.6302845 25.4502997,45.5463474 C27.6796088,45.4555302 28.5123415,44.1207927 31.2026031,44.1207927 C33.8681708,44.1207927 34.6501438,45.5463474 36.9741127,45.4913067 C39.3666758,45.4555302 40.8730028,43.3460945 42.3107357,41.1884983 C44.0324482,38.7419382 44.723877,36.3270266 44.7513146,36.2031849 C44.6964393,36.1852967 40.1061205,34.4281217 40.0594765,29.112564" id="Fill-2" fill="#FFFFFF"></path>
                    <path d="M36.5191685,16.5385377 C37.7181938,15.03455 38.5385795,12.9884112 38.310847,10.912 C36.5754157,10.989057 34.4050975,12.1160158 33.1553126,13.5869791 C32.0495753,14.883188 31.0618199,17.0077599 31.31699,19.0057381 C33.2664351,19.151596 35.2680116,18.0191331 36.5191685,16.5385377" id="Fill-3" fill="#FFFFFF"></path>
                    <path d="M72.3628805,45.5492584 L69.2473353,45.5492584 L67.5407135,40.170404 L61.6086936,40.170404 L59.9830128,45.5492584 L56.9497806,45.5492584 L62.8282971,27.2372105 L66.4582982,27.2372105 L72.3628805,45.5492584 L72.3628805,45.5492584 Z M67.0262576,37.9137344 L65.4828897,33.1334477 C65.3196357,32.6435853 65.012334,31.4932343 64.5623566,29.6823945 L64.5074813,29.6823945 C64.3263928,30.4612207 64.0369256,31.6115718 63.6404515,33.1334477 L62.1231495,37.9137344 L67.0262576,37.9137344 L67.0262576,37.9137344 Z" id="Fill-4" fill="#FFFFFF"></path>
                    <path d="M87.624603,38.9494264 C87.624603,41.1950879 87.0168591,42.9701511 85.7999993,44.2732402 C84.7107246,45.4332234 83.3566766,46.012527 81.7419709,46.012527 C79.9983082,46.012527 78.7444076,45.3891908 77.9830128,44.1383904 L77.9830128,51.0666412 L75.0581593,51.0666412 L75.0581593,36.8496229 C75.0581593,35.4392044 75.0211185,33.9930095 74.9497806,32.509662 L77.5220603,32.509662 L77.6853143,34.6039615 L77.7401896,34.6039615 C78.7155981,33.0256688 80.1958593,32.2372105 82.1823451,32.2372105 C83.7353161,32.2372105 85.0317451,32.8522905 86.0688883,34.0838267 C87.1046596,35.3181149 87.624603,36.9390641 87.624603,38.9494264 L87.624603,38.9494264 Z M84.6448742,39.0567558 C84.6448742,37.771555 84.3567789,36.7120211 83.7778445,35.8781542 C83.1454067,35.0098868 82.2962114,34.5736891 81.2316306,34.5736891 C80.5100204,34.5736891 79.8542605,34.8158683 79.2684667,35.2947225 C78.681301,35.7749528 78.2971739,36.4037931 78.1174573,37.1839953 C78.026913,37.545888 77.9816409,37.8417319 77.9816409,38.075655 L77.9816409,40.2800359 C77.9816409,41.2377444 78.2752238,42.048219 78.8623895,42.7114597 C79.4495552,43.3719484 80.2123219,43.7035687 81.1506895,43.7035687 C82.2523111,43.7035687 83.1097377,43.2756271 83.7229692,42.426624 C84.3375725,41.5748688 84.6448742,40.4520381 84.6448742,39.0567558 L84.6448742,39.0567558 Z" id="Fill-5" fill="#FFFFFF"></path>
                    <path d="M102.625975,38.9494264 C102.625975,41.1950879 102.018231,42.9701511 100.801371,44.2732402 C99.7107246,45.4332234 98.3580484,46.012527 96.7419709,46.012527 C94.9996801,46.012527 93.7457795,45.3891908 92.9830128,44.1383904 L92.9830128,51.0666412 L90.0581593,51.0666412 L90.0581593,36.8496229 C90.0581593,35.4392044 90.0211185,33.9930095 89.9497806,32.509662 L92.5220603,32.509662 L92.6853143,34.6039615 L92.7401896,34.6039615 C93.7142262,33.0256688 95.1944874,32.2372105 97.1823451,32.2372105 C98.7339442,32.2372105 100.031745,32.8522905 101.07026,34.0838267 C102.10466,35.3181149 102.625975,36.9390641 102.625975,38.9494264 L102.625975,38.9494264 Z M99.6448742,39.0567558 C99.6448742,37.771555 99.355407,36.7120211 98.7764726,35.8781542 C98.1454067,35.0098868 97.2975833,34.5736891 96.2330024,34.5736891 C95.5113922,34.5736891 94.8556324,34.8158683 94.2670948,35.2947225 C93.681301,35.7749528 93.2971739,36.4037931 93.1174573,37.1839953 C93.0282849,37.545888 92.980269,37.8417319 92.980269,38.075655 L92.980269,40.2800359 C92.980269,41.2377444 93.2752238,42.048219 93.8596457,42.7114597 C94.4468114,43.3705724 95.2095781,43.7035687 96.1506895,43.7035687 C97.253683,43.7035687 98.1111096,43.2756271 98.7229692,42.426624 C99.3375725,41.5748688 99.6448742,40.4520381 99.6448742,39.0567558 L99.6448742,39.0567558 Z" id="Fill-6" fill="#FFFFFF"></path>
                    <path d="M119.273299,40.6850347 C119.273299,42.2426871 118.731405,43.5099997 117.650362,44.4883485 C116.462312,45.5561385 114.803706,46.0914095 112.677288,46.0914095 C110.712752,46.0914095 109.137831,45.7116286 107.949781,44.9506906 L108.626119,42.5055066 C109.908829,43.2664445 111.317752,43.6476015 112.851517,43.6476015 C113.95451,43.6476015 114.811937,43.3971662 115.423796,42.9004237 C116.0384,42.4009292 116.347073,41.7363125 116.347073,40.9051976 C116.347073,40.1607718 116.091903,39.5360596 115.58705,39.028309 C115.080826,38.5233104 114.243978,38.0499602 113.069646,37.6178905 C109.87316,36.4221308 108.273545,34.6718359 108.273545,32.3725098 C108.273545,30.8698981 108.83876,29.639738 109.965076,28.6779014 C111.092763,27.7174408 112.588115,27.2372105 114.448388,27.2372105 C116.109738,27.2372105 117.493967,27.5275503 118.592845,28.1068539 L117.858888,30.4983732 C116.824488,29.9369579 115.657016,29.6562502 114.350984,29.6562502 C113.319329,29.6562502 112.508546,29.9108135 111.930984,30.4171881 C111.443965,30.8698981 111.195655,31.4216813 111.195655,32.0766659 C111.195655,32.7990754 111.47689,33.3990192 112.03799,33.8682414 C112.523637,34.3030631 113.409873,34.7750373 114.691211,35.2814119 C116.263389,35.9171322 117.417142,36.6574299 118.157958,37.5078091 C118.90289,38.3581882 119.273299,39.4190981 119.273299,40.6850347" id="Fill-7" fill="#FFFFFF"></path>
                    <path d="M129.96569,34.7316505 L126.741766,34.7316505 L126.741766,41.1425185 C126.741766,42.7730999 127.309726,43.5863265 128.448388,43.5863265 C128.971075,43.5863265 129.40459,43.5422939 129.747561,43.4501007 L129.828502,45.6778739 C129.252311,45.8939088 128.49366,46.0026142 127.555292,46.0026142 C126.398796,46.0026142 125.497469,45.6476015 124.844453,44.9417043 C124.19418,44.234431 123.869044,43.0496795 123.869044,41.3819456 L123.869044,34.7261464 L121.949781,34.7261464 L121.949781,32.5245176 L123.869044,32.5245176 L123.869044,30.1068539 L126.741766,29.2372105 L126.741766,32.5245176 L129.96569,32.5245176 L129.96569,34.7316505" id="Fill-8" fill="#FFFFFF"></path>
                    <path d="M143.844104,38.9989631 C143.844104,41.0285897 143.266542,42.6949475 142.110045,43.9980366 C140.901416,45.3382782 139.29357,46.0083989 137.28925,46.0083989 C135.354895,46.0083989 133.817015,45.3657985 132.670121,44.0805977 C131.523227,42.7953968 130.949781,41.1744476 130.949781,39.219126 C130.949781,37.1729872 131.543806,35.4969972 132.723625,34.1939081 C133.906187,32.890819 135.500315,32.2372105 137.504635,32.2372105 C139.437618,32.2372105 140.987845,32.8825629 142.163548,34.1663878 C143.285748,35.4144361 143.844104,37.0230012 143.844104,38.9989631 L143.844104,38.9989631 Z M140.812244,39.066388 C140.812244,37.8568681 140.551586,36.8193505 140.028899,35.9510831 C139.415668,34.9025574 138.536291,34.3796706 137.400372,34.3796706 C136.230156,34.3796706 135.32883,34.9025574 134.718342,35.9510831 C134.192911,36.8193505 133.933625,37.8747564 133.933625,39.1214287 C133.933625,40.3323246 134.192911,41.3725942 134.718342,42.2367335 C135.35078,43.2866353 136.2329,43.8108981 137.37705,43.8108981 C138.493762,43.8108981 139.370395,43.2742511 140.005577,42.2119652 C140.541983,41.3230575 140.812244,40.2786599 140.812244,39.066388 L140.812244,39.066388 Z" id="Fill-9" fill="#FFFFFF"></path>
                    <path d="M152.995769,35.0896959 C152.706302,35.0360312 152.396256,35.0098868 152.073864,35.0098868 C151.044952,35.0098868 150.24926,35.3965479 149.689532,36.1781261 C149.202514,36.8661351 148.959691,37.7357785 148.959691,38.7856803 L148.959691,45.7139311 L146.034837,45.7139311 L146.034837,36.6679885 C146.034837,35.1474886 146.006028,33.7590864 145.949781,32.5110381 L148.497366,32.5110381 L148.604373,35.0374072 L148.685314,35.0374072 C148.99536,34.1691398 149.481006,33.4687466 150.147741,32.9458598 C150.800757,32.4725096 151.503161,32.2372105 152.261812,32.2372105 C152.532073,32.2372105 152.776268,32.2578507 152.993025,32.2908752 L152.995769,35.0896959" id="Fill-10" fill="#FFFFFF"></path>
                    <path d="M166.649195,38.5077246 C166.649195,39.0333635 166.614897,39.4764413 166.542188,39.8383341 L157.768999,39.8383341 C157.800552,41.1427992 158.227208,42.1417883 159.040734,42.8297973 C159.780179,43.4435013 160.737753,43.7517294 161.910712,43.7517294 C163.209885,43.7517294 164.395192,43.5453267 165.461144,43.1270172 L165.919353,45.1635239 C164.673684,45.707051 163.201654,45.9795026 161.506007,45.9795026 C159.464646,45.9795026 157.862287,45.3768067 156.696187,44.1741669 C155.534203,42.9701511 154.949781,41.3505779 154.949781,39.3250794 C154.949781,37.3353573 155.490302,35.6772556 156.576833,34.3549022 C157.712752,32.9431077 159.247888,32.2372105 161.179499,32.2372105 C163.076813,32.2372105 164.513174,32.9431077 165.48721,34.3549022 C166.260952,35.4736049 166.649195,36.8606311 166.649195,38.5077246 L166.649195,38.5077246 Z M163.860157,37.7467867 C163.880736,36.8757673 163.688672,36.1272135 163.292198,35.4914931 C162.785973,34.6741384 162.006744,34.2668371 160.962742,34.2668371 C160.005168,34.2668371 159.22731,34.6645063 158.634657,35.4625967 C158.147639,36.0969411 157.858171,36.8606311 157.768999,37.7440346 L163.860157,37.7467867 L163.860157,37.7467867 Z" id="Fill-11" fill="#FFFFFF"></path>
                    <path d="M65.6393336,20.4897444 L64.1069408,20.4897444 L63.2687206,17.8464138 L60.3534703,17.8464138 L59.5536628,20.4897444 L58.0624265,20.4897444 L60.9516111,11.4892105 L62.7350583,11.4892105 L65.6393336,20.4897444 L65.6393336,20.4897444 Z M63.0162942,16.7373433 L62.2576432,14.3871045 C62.178074,14.1463013 62.0312826,13.586262 61.804922,12.6918502 L61.7774843,12.6918502 C61.6841963,13.0785113 61.5511237,13.6399267 61.3508289,14.3871045 L60.6058967,16.7373433 L63.0162942,16.7373433 L63.0162942,16.7373433 Z" id="Fill-12" fill="#FFFFFF"></path>
                    <path d="M73.2811699,14.4892105 L70.8309878,20.9785115 L69.4330395,20.9785115 L67.0624265,14.4892105 L68.6071662,14.4892105 L69.7129035,17.9209994 C69.8994795,18.494799 70.0586179,19.0424541 70.1779717,19.562589 L70.2177563,19.562589 C70.3247631,19.0961188 70.4839015,18.5484637 70.6828244,17.9209994 L71.7748429,14.4892105 L73.2811699,14.4892105" id="Fill-13" fill="#FFFFFF"></path>
                    <path d="M78.0834141,20.1119853 L77.9764073,19.3648075 L77.9366227,19.3648075 C77.4976203,19.9661274 76.8583231,20.2592192 76.0461686,20.2592192 C74.8882998,20.2592192 74.0624265,19.4446165 74.0624265,18.3493062 C74.0624265,16.7476212 75.446656,15.9192583 77.8433347,15.9192583 L77.8433347,15.7995448 C77.8433347,14.9450376 77.3906135,14.5170959 76.4988898,14.5170959 C75.8595926,14.5170959 75.2998645,14.6780901 74.8087306,14.9987023 L74.5165196,14.0506258 C75.1160323,13.6763489 75.8609645,13.4892105 76.7403412,13.4892105 C78.4305004,13.4892105 79.2838113,14.3836222 79.2838113,16.1738217 L79.2838113,18.563965 C79.2838113,19.2189496 79.311249,19.7267002 79.3770993,20.1133613 L78.0834141,20.1119853 L78.0834141,20.1119853 Z M77.8831193,16.8797189 C76.2848762,16.8797189 75.4864406,17.267756 75.4864406,18.1883121 C75.4864406,18.869441 75.8993772,19.2024373 76.4714522,19.2024373 C77.2040375,19.2024373 77.8831193,18.642398 77.8831193,17.88146 L77.8831193,16.8797189 L77.8831193,16.8797189 Z" id="Fill-14" fill="#FFFFFF"></path>
                    <path d="M82.9143656,13.2119851 C82.4355786,13.2119851 82.0624265,12.8377081 82.0624265,12.3437177 C82.0624265,11.8497272 82.4479255,11.4892105 82.9418032,11.4892105 C83.434309,11.4892105 83.8335268,11.8497272 83.819808,12.3437177 C83.819808,12.8652285 83.4480278,13.2119851 82.9143656,13.2119851 L82.9143656,13.2119851 Z M82.2229368,14.2811511 L83.6606696,14.2811511 L83.6606696,20.7704521 L82.2229368,20.7704521 L82.2229368,14.2811511 Z" id="Fill-15" fill="#FFFFFF"></path>
                    <polygon id="Fill-16" fill="#FFFFFF" points="86.0624265 11.4892105 87.5001594 11.4892105 87.5001594 20.9562145 86.0624265 20.9562145"></polygon>
                    <path d="M94.0834141,20.1133613 L93.9750354,19.3661835 L93.9366227,19.3661835 C93.4976203,19.9675034 92.8583231,20.2605952 92.0461686,20.2605952 C90.8882998,20.2605952 90.0624265,19.4459925 90.0624265,18.3506822 C90.0624265,16.7489972 91.446656,15.9206343 93.8433347,15.9206343 L93.8433347,15.8009208 C93.8433347,14.9464136 93.3906135,14.518472 92.4988898,14.518472 C91.8595926,14.518472 91.2998645,14.6794661 90.8087306,15.0000783 L90.5151477,14.0506258 C91.1146604,13.6763489 91.8595926,13.4892105 92.7389693,13.4892105 C94.4291285,13.4892105 95.2838113,14.3836222 95.2838113,16.1738217 L95.2838113,18.563965 C95.2838113,19.2189496 95.311249,19.7267002 95.3743556,20.1133613 L94.0834141,20.1133613 L94.0834141,20.1133613 Z M93.8831193,16.8810949 C92.2848762,16.8810949 91.4864406,17.269132 91.4864406,18.1896881 C91.4864406,18.870817 91.8993772,19.2038134 92.4714522,19.2038134 C93.2040375,19.2038134 93.8831193,18.643774 93.8831193,17.8828361 L93.8831193,16.8810949 L93.8831193,16.8810949 Z" id="Fill-17" fill="#FFFFFF"></path>
                    <path d="M100.43177,21.1034485 C99.5139806,21.1034485 98.8362706,20.7154114 98.3958963,19.9544734 L98.3684587,19.9544734 L98.2861457,20.9562145 L97.0624265,20.9562145 C97.1008392,20.4360797 97.1145581,19.847144 97.1145581,19.2072956 L97.1145581,11.4892105 L98.5550347,11.4892105 L98.5550347,15.4163659 L98.5811005,15.4163659 C99.0077559,14.6953325 99.6991847,14.3348158 100.644412,14.3348158 C102.20287,14.3348158 103.294889,15.6709293 103.294889,17.6193708 C103.294889,19.6338612 102.082145,21.1034485 100.43177,21.1034485 L100.43177,21.1034485 Z M100.139559,15.4672786 C99.3123138,15.4672786 98.5550347,16.1883121 98.5550347,17.1900532 L98.5550347,18.3252681 C98.5550347,19.2196798 99.2354884,19.9544734 100.113493,19.9544734 C101.190421,19.9544734 101.832462,19.0738219 101.832462,17.6716595 C101.83109,16.3630663 101.164355,15.4672786 100.139559,15.4672786 L100.139559,15.4672786 Z" id="Fill-18" fill="#FFFFFF"></path>
                    <polygon id="Fill-19" fill="#FFFFFF" points="106.062427 11.4892105 107.498788 11.4892105 107.498788 20.9562145 106.062427 20.9562145"></polygon>
                    <path d="M114.765342,17.2278515 L110.4494,17.2278515 C110.478209,18.4566356 111.28762,19.1501487 112.485273,19.1501487 C113.125942,19.1501487 113.711736,19.0428193 114.230308,18.8432966 L114.453925,19.8450378 C113.842065,20.1119853 113.123199,20.245459 112.284979,20.245459 C110.26008,20.245459 109.062427,18.9630102 109.062427,16.9746642 C109.062427,14.9849421 110.288889,13.4892105 112.124468,13.4892105 C113.773471,13.4892105 114.81473,14.7179946 114.81473,16.5742429 C114.818846,16.8274302 114.806499,17.0544732 114.765342,17.2278515 L114.765342,17.2278515 Z M113.448335,16.199966 C113.448335,15.1982249 112.940738,14.4909516 112.021577,14.4909516 C111.195704,14.4909516 110.545432,15.2119851 110.4494,16.199966 L113.448335,16.199966 L113.448335,16.199966 Z" id="Fill-20" fill="#FFFFFF"></path>
                    <path d="M123.177972,20.2592192 C121.287518,20.2592192 120.062427,18.8432966 120.062427,16.9209994 C120.062427,14.9175172 121.313583,13.4892105 123.28635,13.4892105 C125.147995,13.4892105 126.401896,14.8377081 126.401896,16.8150461 C126.401896,18.8432966 125.109582,20.2592192 123.177972,20.2592192 L123.177972,20.2592192 Z M123.232847,14.5432403 C122.194332,14.5432403 121.528969,15.5174611 121.528969,16.8797189 C121.528969,18.2158324 122.208051,19.1900532 123.219128,19.1900532 C124.230206,19.1900532 124.909287,18.1484075 124.909287,16.8521985 C124.909287,15.5312212 124.243924,14.5432403 123.232847,14.5432403 L123.232847,14.5432403 Z" id="Fill-21" fill="#FFFFFF"></path>
                    <path d="M134.732417,20.1133613 L133.297428,20.1133613 L133.297428,16.3871045 C133.297428,15.2395054 132.857054,14.6643299 131.991396,14.6643299 C131.139457,14.6643299 130.552291,15.3991235 130.552291,16.2536307 L130.552291,20.1133613 L129.117302,20.1133613 L129.117302,15.4789326 C129.117302,14.905133 129.100839,14.290053 129.062427,13.6226842 L130.327302,13.6226842 L130.394524,14.6244254 L130.435681,14.6244254 C130.818436,13.9309123 131.605897,13.4892105 132.485273,13.4892105 C133.840693,13.4892105 134.732417,14.5308561 134.732417,16.2261103 L134.732417,20.1133613" id="Fill-22" fill="#FFFFFF"></path>
                    <path d="M143.996986,15.1875818 L142.415205,15.1875818 L142.415205,18.3386631 C142.415205,19.1408816 142.693697,19.5413029 143.252053,19.5413029 C143.50448,19.5413029 143.719865,19.5137825 143.891351,19.473878 L143.931135,20.5691884 C143.651271,20.6765178 143.276747,20.7301825 142.814423,20.7301825 C141.679876,20.7301825 141.00491,20.1027182 141.00491,18.4597527 L141.00491,15.1875818 L140.062427,15.1875818 L140.062427,14.1060317 L141.00491,14.1060317 L141.00491,12.9171521 L142.415205,12.4892105 L142.415205,14.1046556 L143.996986,14.1046556 L143.996986,15.1875818" id="Fill-23" fill="#FFFFFF"></path>
                    <path d="M151.681657,20.9562145 L150.242553,20.9562145 L150.242553,17.2574781 C150.242553,16.0961188 149.802178,15.5085591 148.937892,15.5085591 C148.19296,15.5085591 147.501531,16.0163098 147.501531,17.0441953 L147.501531,20.9562145 L146.062427,20.9562145 L146.062427,11.4892105 L147.501531,11.4892105 L147.501531,15.3874696 L147.528969,15.3874696 C147.980318,14.6801963 148.634706,14.3320637 149.472926,14.3320637 C150.843437,14.3320637 151.681657,15.3998537 151.681657,17.096484 L151.681657,20.9562145" id="Fill-24" fill="#FFFFFF"></path>
                    <path d="M158.765342,17.2278515 L154.450772,17.2278515 C154.478209,18.4566356 155.28762,19.1501487 156.486645,19.1501487 C157.128686,19.1501487 157.713108,19.0428193 158.228936,18.8432966 L158.453925,19.8450378 C157.843437,20.1119853 157.123199,20.245459 156.283607,20.245459 C154.26008,20.245459 153.062427,18.9630102 153.062427,16.9746642 C153.062427,14.9849421 154.287518,13.4892105 156.123096,13.4892105 C157.773471,13.4892105 158.813358,14.7179946 158.813358,16.5742429 C158.818846,16.8274302 158.805127,17.0544732 158.765342,17.2278515 L158.765342,17.2278515 Z M157.446963,16.199966 C157.446963,15.1982249 156.94211,14.4909516 156.022949,14.4909516 C155.197076,14.4909516 154.545432,15.2119851 154.450772,16.199966 L157.446963,16.199966 L157.446963,16.199966 Z" id="Fill-25" fill="#FFFFFF"></path>
                </g>
            </g>
        </g>
    </g>
</svg>