<?xml version="1.0" encoding="UTF-8"?>
<svg width="47px" height="47px" viewBox="0 0 47 47" version="1.1" xmlns="http://www.w3.org/2000/svg" xmlns:xlink="http://www.w3.org/1999/xlink">
    <!-- Generator: Sketch 47.1 (45422) - http://www.bohemiancoding.com/sketch -->
    <title>blackboard-with-chart</title>
    <desc>Created with Sketch.</desc>
    <defs></defs>
    <g id="Page-1" stroke="none" stroke-width="1" fill="none" fill-rule="evenodd">
        <g id="Desktop-HD" transform="translate(-120.000000, -1145.000000)" fill-rule="nonzero" fill="#2254A7">
            <g id="Group-21" transform="translate(120.000000, 1145.000000)">
                <g id="blackboard-with-chart">
                    <path d="M3.6719134,27.8991846 C3.26803595,27.8991846 2.94064869,27.5716438 2.94064869,27.1679967 C2.94064869,26.7640425 3.26803595,26.436732 3.6719134,26.436732 L7.29014542,26.4428758 L13.3943856,19.3487173 C13.6575703,19.0412206 14.1195833,19.0060474 14.4270801,19.2691552 C14.476,19.3104722 14.517317,19.3578562 14.5524902,19.4083121 L19.8551961,26.0343137 L31.0265278,13.4631193 C31.2957794,13.1602304 31.7593284,13.1341961 32.0622173,13.4019118 L32.1217353,13.4631193 L38.8089444,20.1426487 L41.2506405,16.4801046 C41.4756569,16.1450376 41.9299902,16.0548007 42.2665931,16.2796634 C42.6015833,16.5046029 42.6919739,16.9589363 42.4669575,17.2955392 L39.5495016,21.6726062 C39.5204722,21.720067 39.4852222,21.765915 39.4422925,21.807232 C39.1577582,22.0933023 38.6926732,22.0948382 38.4066029,21.8103039 L31.6078072,15.0174984 L20.3768807,27.6544314 L20.3753448,27.6528954 C20.3477745,27.683384 20.3172092,27.7111078 20.2851078,27.7385245 C19.9699314,27.9894984 19.5094542,27.9388121 19.2585572,27.6237892 L13.9329657,20.9687582 L8.18514216,27.6499003 L8.18360621,27.6482876 C8.04744444,27.8074118 7.84853922,27.905482 7.62674837,27.905482 L3.6719134,27.8991846 L3.6719134,27.8991846 Z M32.0897876,13.4309412 L32.1365526,13.4777062 L32.0897876,13.4309412 Z" id="Shape"></path>
                    <path d="M22.7681209,4.40456046 C23.1735343,4.40456046 23.5024575,4.73348366 23.5024575,5.13897386 C23.5024575,5.54438725 23.1735343,5.87331046 22.7681209,5.87331046 L1.46890359,5.87331046 L1.46890359,32.3220997 L45.5299444,32.3220997 L45.5299444,5.87331046 L25.7008595,5.87331046 C25.2955229,5.87331046 24.9665229,5.54438725 24.9665229,5.13897386 C24.9665229,4.73356046 25.2954461,4.40456046 25.7008595,4.40456046 L46.2458497,4.40456046 L46.2642042,4.40456046 C46.6696176,4.40456046 46.9986176,4.73348366 46.9986176,5.13897386 L46.9986176,33.0382353 L46.9986176,33.0564363 C46.9986176,33.4618497 46.6696944,33.7908497 46.2642042,33.7908497 L0.754380719,33.7908497 L0.734490196,33.7908497 C0.329076797,33.7907729 0.000153594771,33.4618497 0.000153594771,33.0564363 L0.000153594771,5.15878758 L0.000153594771,5.13889706 C0.000153594771,4.73348366 0.329076797,4.40448366 0.734490196,4.40448366 L22.7681209,4.40456046 L22.7681209,4.40456046 Z" id="Shape"></path>
                    <path d="M22.0322484,0.731264706 C22.0322484,0.327387255 22.3611716,0 22.7635131,0 C23.1673905,0 23.4947778,0.327387255 23.4947778,0.731264706 L23.4963137,5.13743791 C23.4963137,5.54131536 23.1689265,5.86870261 22.765049,5.86870261 C22.3611716,5.86870261 22.0337843,5.54131536 22.0337843,5.13743791 L22.0322484,0.731264706 Z" id="Shape"></path>
                    <path d="M22.0352435,35.9816487 C22.0352435,35.5776176 22.3626307,35.2503072 22.7665082,35.2503072 C23.1703856,35.2503072 23.4977729,35.5777712 23.4977729,35.9816487 L23.494701,43.3297761 C23.494701,43.7320408 23.1673137,44.0609641 22.7634363,44.0609641 C22.3595588,44.0609641 22.0321716,43.7335768 22.0321716,43.3297761 L22.0352435,35.9816487 Z" id="Shape"></path>
                    <path d="M11.7773399,35.7812843 C11.8875441,35.3911536 12.2928807,35.1662908 12.6830114,35.2764183 C13.0716062,35.3866225 13.2980049,35.7919592 13.1878775,36.1820899 L10.256598,46.4660278 C10.1464706,46.8561585 9.74105719,47.0811748 9.35092647,46.9708938 C8.9623317,46.8607663 8.73593301,46.4553529 8.84606046,46.0652222 L11.7773399,35.7812843 Z" id="Shape"></path>
                    <path d="M32.3422206,36.1820899 C32.2320163,35.7919592 32.4569559,35.3866225 32.8470866,35.2764183 C33.2372173,35.1661373 33.6425539,35.3911536 33.7527582,35.7812843 L36.6886454,46.0652222 C36.7988497,46.4538938 36.5739869,46.8607663 36.1838562,46.9708938 C35.7951078,47.0811748 35.3883121,46.8561585 35.2781078,46.4660278 L32.3422206,36.1820899 Z" id="Shape"></path>
                    <path d="M0.734490196,36.7298856 C0.329076797,36.7298856 0.000153594771,36.4010392 0.000153594771,35.995549 C0.000153594771,35.5900588 0.329076797,35.2612124 0.734490196,35.2612124 L46.264281,35.2612124 C46.6696944,35.2612124 46.9986944,35.5900588 46.9986944,35.995549 C46.9986944,36.3993497 46.6697712,36.7298856 46.264281,36.7298856 L0.734490196,36.7298856 Z" id="Shape"></path>
                </g>
            </g>
        </g>
    </g>
</svg>