<?xml version="1.0" encoding="UTF-8"?>
<svg width="48px" height="48px" viewBox="0 0 48 48" version="1.1" xmlns="http://www.w3.org/2000/svg" xmlns:xlink="http://www.w3.org/1999/xlink">
    <!-- Generator: Sketch 47.1 (45422) - http://www.bohemiancoding.com/sketch -->
    <title>navigation</title>
    <desc>Created with Sketch.</desc>
    <defs></defs>
    <g id="Page-1" stroke="none" stroke-width="1" fill="none" fill-rule="evenodd">
        <g id="Desktop-HD" transform="translate(-932.000000, -1138.000000)" fill-rule="nonzero" fill="#2254A7">
            <g id="Group-22" transform="translate(932.000000, 1138.000000)">
                <g id="navigation">
                    <path d="M35.6465361,11.3864286 L7.49085517,24.3080761 C7.1767108,24.4529446 6.99326309,24.7844102 7.03892819,25.1276858 C7.08459328,25.4709613 7.34834858,25.7433773 7.68926214,25.800065 L20.155046,27.8888494 L21.5793246,39.6594215 C21.6218403,40.0042718 21.8855956,40.282199 22.2280839,40.3404613 C22.2729616,40.3483346 22.3170521,40.3522713 22.3611425,40.3522713 C22.656391,40.3522713 22.9327435,40.1861448 23.0665895,39.9145162 L36.6802994,12.4508977 C36.8283173,12.1517126 36.7724169,11.7919031 36.5401548,11.5525551 C36.3078926,11.313207 35.9472958,11.2470713 35.6465361,11.3864286 Z M22.8256667,36.8541675 L21.6478222,27.1156921 C21.6053064,26.7692673 21.3399765,26.49134 20.9959136,26.433865 L10.4756203,24.6710348 L34.2813072,13.745267 L22.8256667,36.8541675 Z" id="Shape"></path>
                    <path d="M23.6198772,0 C10.5958769,0 0,10.5958769 0,23.6198772 C0,36.6438774 10.5958769,47.2397543 23.6198772,47.2397543 C36.6438774,47.2397543 47.2397543,36.6438774 47.2397543,23.6198772 C47.2397543,10.5958769 36.6438774,0 23.6198772,0 Z M23.6198772,45.6650958 C11.464301,45.6650958 1.57465848,35.7754533 1.57465848,23.6198772 C1.57465848,11.464301 11.464301,1.57465848 23.6198772,1.57465848 C35.7754533,1.57465848 45.6650958,11.464301 45.6650958,23.6198772 C45.6650958,35.7754533 35.7754533,45.6650958 23.6198772,45.6650958 Z" id="Shape"></path>
                </g>
            </g>
        </g>
    </g>
</svg>