<?xml version="1.0" encoding="UTF-8"?>
<svg width="177px" height="33px" viewBox="0 0 177 33" version="1.1" xmlns="http://www.w3.org/2000/svg" xmlns:xlink="http://www.w3.org/1999/xlink">
    <!-- Generator: Sketch 47.1 (45422) - http://www.bohemiancoding.com/sketch -->
    <title>Runup</title>
    <desc>Created with Sketch.</desc>
    <defs></defs>
    <g id="Page-1" stroke="none" stroke-width="1" fill="none" fill-rule="evenodd">
        <g id="Desktop-HD" transform="translate(-113.000000, -43.000000)" fill="#FFFFFF">
            <g id="Group-4" transform="translate(112.000000, 43.000000)">
                <path d="M26.0270251,1.89640813 C29.4646486,5.95493564 32.7031155,18.9673909 31.6774581,16.9116123 C28.415762,19.3226888 25.2548293,23.3215144 21.9869758,25.7361262 C22.5006841,26.4484897 23.8824687,28.9847813 24.3592322,29.6326255 C26.3885561,32.3945808 21.1784628,31.8307 20.9260068,31.8307 L3.72293504,31.8307 C3.90765893,31.6777981 4.09238281,31.5222448 4.2771067,31.3684592 C6.80958324,29.2561158 9.23915307,26.8164287 11.761074,24.7067368 C11.7478794,24.5264364 11.8428694,24.6778988 11.8516657,24.5029013 L23.1400546,24.5029013 C23.3916309,24.5029013 23.3916309,24.1113665 23.1400546,24.1113665 L11.8894902,24.1113665 C12.0328711,23.1515318 12.5254681,22.2659385 13.3716795,21.4766822 C14.8116461,20.1323833 16.2489739,18.7845492 17.6863017,17.436715 L31.0858207,17.436715 C31.3365174,17.436715 31.3365174,17.0442964 31.0858207,17.0442964 L18.1058888,17.0442964 C20.1457683,15.12993 22.1838885,13.2146797 24.2220088,11.2994295 C24.3187689,11.2083955 24.4137698,11.1164776 24.5105299,11.0236759 L29.3916387,11.0236759 C29.6440947,11.0236759 29.6440947,10.6312573 29.3916387,10.6312573 L24.9116446,10.6312573 C25.1350726,10.4111847 25.364658,10.1831577 25.6109565,9.94098944 C24.7304393,8.73456739 21.0482765,3.30257478 20.7967001,3.30257478 C6.80316897,2.29793658 0.252966065,1.77646792 1.1460914,1.73816881 C5.11149753,1.57024193 20.3982243,1.08947529 24.367149,1.05942521 C24.9265985,1.05500609 25.6514198,1.45272764 26.0270251,1.89640813 Z M36.7268185,11.6620072 C33.5460491,11.6337248 31.01973,9.04853468 31.01973,5.82168714 C31.0214893,2.6054455 33.5645215,0.0264421722 36.7417723,0.0220230438 C39.9410141,0.0167200897 42.4866852,2.56744099 42.4937223,5.78898559 C42.5016391,9.06532737 39.924301,11.6894058 36.7268185,11.6620072 Z M68.3379823,15.301659 C69.4427924,15.301659 70.4967074,15.1848675 71.4997587,14.9512811 C72.5028101,14.7176947 73.4040891,14.3454219 74.2036227,13.8344516 C75.0031564,13.3234813 75.686384,12.6738288 76.2533261,11.8854747 C76.8202682,11.0971205 77.220029,10.1481899 77.4526206,9.03865438 C77.7142862,7.87072227 77.7142862,6.90719274 77.4526206,6.14803687 C77.1909551,5.388881 76.7548523,4.79032477 76.1442993,4.35235023 C75.5337463,3.91437569 74.7851033,3.60779811 73.8983478,3.43260829 C73.0115922,3.25741848 72.0739714,3.16982488 71.085457,3.16982488 L61.6655437,3.16982488 L59.0925118,15.301659 L68.3379823,15.301659 Z M58.5691833,17.8418986 L55.5164336,32.1635945 L52.5509053,32.1635945 L59.2233439,0.629585253 L71.5215641,0.629585253 C74.9813644,0.629585253 77.4889551,1.27923774 79.0444115,2.57856221 C80.599868,3.87788668 81.0723126,5.98743241 80.4617596,8.90726267 C80.0547243,10.8927473 79.320618,12.4694319 78.2594188,13.6373641 C77.1982195,14.8052962 75.6791283,15.7980236 73.7020996,16.615576 C74.5743181,16.9367574 75.2066671,17.4039232 75.5991655,18.0170876 C75.9916638,18.6302519 76.2387887,19.3310007 76.3405475,20.1193548 C76.4423064,20.907709 76.435038,21.7398482 76.3187422,22.6157972 C76.2024464,23.4917463 76.0716155,24.3384844 75.9262458,25.1560369 C75.6936542,26.3531673 75.5264814,27.3458947 75.4247226,28.1342488 C75.3229638,28.922603 75.2720851,29.564956 75.2720851,30.0613272 C75.2720851,30.5576983 75.3156954,30.94457 75.4029173,31.2219539 C75.4901391,31.4993378 75.6209699,31.7110223 75.7954136,31.8570138 L75.7518029,32.1635945 L72.4809997,32.1635945 C72.277482,31.6088267 72.2047983,30.8715806 72.2629462,29.9518341 C72.3210941,29.0320876 72.4228514,28.0612586 72.5682211,27.039318 C72.7135909,26.0173774 72.8734952,25.0173505 73.0479389,24.0392074 C73.2223826,23.0610642 73.3096032,22.2800214 73.3096032,21.6960553 C73.3096032,20.8493045 73.1642356,20.1704542 72.8734961,19.6594839 C72.5827566,19.1485136 72.1975325,18.7616419 71.7178123,18.4988571 C71.2380921,18.2360724 70.6638901,18.0608852 69.9951892,17.9732903 C69.3264884,17.8856954 68.628724,17.8418986 67.9018752,17.8418986 L58.5691833,17.8418986 Z M101.3949,9.47662673 L104.011543,9.47662673 L99.2143648,32.1635945 L96.5977222,32.1635945 L97.2518829,29.0101935 C96.8157736,29.4189698 96.3360606,29.8423388 95.8127295,30.2803134 C95.2893983,30.7182879 94.7006596,31.1197585 94.0464957,31.4847373 C93.3923318,31.8497161 92.6654939,32.1562937 91.8659602,32.4044793 C91.0664265,32.6526648 90.1724159,32.7767558 89.1839016,32.7767558 C87.6720561,32.7767558 86.4509684,32.5650712 85.5206019,32.1416959 C84.5902355,31.7183205 83.8924711,31.1270637 83.4272879,30.3679078 C82.9621046,29.608752 82.700443,28.7255166 82.6422951,27.7181751 C82.5841472,26.7108337 82.6859045,25.6086143 82.9475701,24.4114839 L86.0875412,9.47662673 L88.7041838,9.47662673 L85.5642126,24.3676866 C85.1571773,26.3239729 85.2952765,27.8203635 85.9785144,28.8569032 C86.6617523,29.893443 88.0354759,30.4117051 90.0997265,30.4117051 C91.1754627,30.4117051 92.1857674,30.2000206 93.1306708,29.7766452 C94.0755742,29.3532698 94.9187062,28.762013 95.660092,28.0028571 C96.4014777,27.2437013 97.0410951,26.3385675 97.5789632,25.2874286 C98.1168313,24.2362897 98.5165922,23.082974 98.7782577,21.827447 L101.3949,9.47662673 Z M108.15456,32.1635945 L105.537918,32.1635945 L110.335096,9.47662673 L112.951738,9.47662673 L112.297578,12.6300276 C113.576832,11.5204921 114.848798,10.6153583 116.113515,9.91459908 C117.378232,9.21383981 118.795566,8.86346544 120.365559,8.86346544 C121.761109,8.86346544 123.004002,9.10434782 124.094275,9.58611982 C125.184548,10.0678918 126.005875,10.9073304 126.55828,12.1044608 C126.936241,12.9220133 127.088877,13.7614519 127.016192,14.6228018 C126.943507,15.4841518 126.805408,16.3819861 126.601891,17.3163318 L123.461919,32.1635945 L120.845277,32.1635945 L123.985248,17.360129 C124.421357,15.3162478 124.297795,13.7833599 123.614557,12.7614194 C122.931319,11.7394788 121.543059,11.2285161 119.449734,11.2285161 C118.635664,11.2285161 117.865215,11.3526071 117.138367,11.6007926 C116.411518,11.8489782 115.735559,12.1774542 115.110469,12.5862304 C114.485379,12.9950067 113.925713,13.4621725 113.431456,13.9877419 C112.937199,14.5133114 112.53017,15.0680708 112.210356,15.6520369 C111.803321,16.3819944 111.498049,17.0827432 111.294531,17.7543041 C111.091014,18.4258651 110.902036,19.1558117 110.727592,19.9441659 L108.15456,32.1635945 Z M149.89001,1.26464516 L152.506652,1.26464516 L147.709474,23.9516129 L145.092832,23.9516129 L145.746992,20.798212 C145.310883,21.2069882 144.83117,21.6303573 144.307839,22.0683318 C143.784508,22.5063063 143.195769,22.907777 142.541605,23.2727558 C141.887441,23.6377345 141.160603,23.9443121 140.36107,24.1924977 C139.561536,24.4406833 138.667525,24.5647742 137.679011,24.5647742 C136.167165,24.5647742 134.946078,24.3530897 134.015711,23.9297143 C133.085345,23.5063389 132.38758,22.9150821 131.922397,22.1559263 C131.457214,21.3967704 131.195552,20.513535 131.137404,19.5061935 C131.079256,18.4988521 131.181014,17.3966327 131.442679,16.1995023 L134.58265,1.26464516 L137.199293,1.26464516 L134.059322,16.1557051 C133.652287,18.1119913 133.790386,19.6083819 134.473624,20.6449217 C135.156862,21.6814614 136.530585,22.1997235 138.594836,22.1997235 C139.670572,22.1997235 140.680877,21.988039 141.62578,21.5646636 C142.570684,21.1412882 143.413816,20.5500314 144.155201,19.7908756 C144.896587,19.0317197 145.536204,18.1265859 146.074073,17.075447 C146.611941,16.0243081 147.011701,14.8709925 147.273367,13.6154654 L149.89001,1.26464516 Z M159.353534,12.6957235 C159.091868,13.9804488 159.011916,15.1994597 159.113675,16.3527926 C159.215434,17.5061256 159.506169,18.5134519 159.985889,19.3748018 C160.465609,20.2361518 161.119763,20.9223016 161.948371,21.4332719 C162.776979,21.9442422 163.787283,22.1997235 164.979315,22.1997235 C166.316717,22.1997235 167.545073,21.9296433 168.66442,21.3894747 C169.783767,20.8493061 170.75773,20.11206 171.586338,19.1777143 C172.414945,18.2433686 173.105441,17.1557481 173.657846,15.9148203 C174.210252,14.6738924 174.602744,13.3380901 174.835336,11.9073733 C175.416815,9.04593961 175.147885,6.84880029 174.028537,5.3158894 C172.90919,3.78297851 171.244732,3.01653456 169.035111,3.01653456 C167.814005,3.01653456 166.67287,3.26471641 165.611671,3.76108756 C164.550471,4.2574587 163.605582,4.93630906 162.776974,5.79765899 C161.948367,6.65900892 161.243334,7.68093418 160.661855,8.86346544 C160.080376,10.0459967 159.644273,11.3234033 159.353534,12.6957235 Z M155.079684,32.8862488 L152.463041,32.8862488 L159.13548,1.26464516 L161.752123,1.26464516 L160.923519,5.25019355 L161.010741,5.25019355 C161.534072,4.52023598 162.159152,3.86328403 162.886001,3.27931797 C163.61285,2.69535192 164.368761,2.21358715 165.153758,1.83400922 C165.938755,1.45443128 166.731008,1.16245263 167.530542,0.958064516 C168.330075,0.753676397 169.093255,0.651483871 169.820104,0.651483871 C171.651763,0.651483871 173.149049,0.95806145 174.312007,1.57122581 C175.474965,2.18439016 176.347171,3.02382877 176.92865,4.08956682 C177.510129,5.15530487 177.837206,6.41811252 177.909891,7.87802765 C177.982576,9.33794278 177.844476,10.9000285 177.495589,12.5643318 C177.146702,14.1410401 176.623378,15.6593291 175.925603,17.1192442 C175.227829,18.5791594 174.348355,19.856566 173.287155,20.9515023 C172.225956,22.0464387 170.990332,22.9223746 169.580245,23.5793364 C168.170158,24.2362982 166.607457,24.5647742 164.892094,24.5647742 C163.293026,24.5647742 161.832082,24.2071004 160.509217,23.4917419 C159.186353,22.7763835 158.263269,21.7179609 157.739937,20.3164424 L155.079684,32.8862488 Z" id="Runup"></path>
            </g>
        </g>
    </g>
</svg>