<?xml version="1.0" encoding="UTF-8"?>
<svg width="51px" height="45px" viewBox="0 0 51 45" version="1.1" xmlns="http://www.w3.org/2000/svg" xmlns:xlink="http://www.w3.org/1999/xlink">
    <!-- Generator: Sketch 47.1 (45422) - http://www.bohemiancoding.com/sketch -->
    <title>teamwork</title>
    <desc>Created with Sketch.</desc>
    <defs></defs>
    <g id="Page-1" stroke="none" stroke-width="1" fill="none" fill-rule="evenodd">
        <g id="Desktop-HD" transform="translate(-534.000000, -1140.000000)" fill-rule="nonzero">
            <g id="Group-19" transform="translate(534.000000, 1140.000000)">
                <g id="teamwork">
                    <ellipse id="Oval" cx="42.6040816" cy="47.7217742" rx="3.46938776" ry="3.4562212"></ellipse>
                    <path d="M18.1658844,32.786698 C18.342353,33.0865902 18.6537682,33.252048 18.9859443,33.252048 C19.1416519,33.252048 19.30774,33.2106836 19.4530671,33.1279547 L23.3042346,30.914957 C23.8751624,31.4423536 24.6433198,31.7732692 25.4841407,31.7732692 C26.3249616,31.7732692 27.093119,31.4423536 27.6640468,30.914957 L31.5152143,33.1279547 C31.6605414,33.2106836 31.8266295,33.252048 31.9823371,33.252048 C32.3041327,33.252048 32.6259284,33.0865902 32.802397,32.786698 C33.0619096,32.3420303 32.906202,31.7629281 32.4598403,31.5044003 L28.6086728,29.2914026 C28.6605753,29.0638982 28.6917169,28.8260526 28.6917169,28.577866 C28.6917169,27.1404516 27.7367104,25.9202005 26.4183862,25.5168972 L26.4183862,21.0909019 C26.4183862,20.5738463 25.9927855,20.1498608 25.4737602,20.1498608 C24.9547349,20.1498608 24.5291342,20.5738463 24.5291342,21.0909019 L24.5291342,25.5168972 C23.21081,25.9202005 22.2558035,27.1404516 22.2558035,28.577866 C22.2558035,28.8260526 22.286945,29.0638982 22.3388476,29.2914026 L18.4876801,31.5044003 C18.0620794,31.7629281 17.9063718,32.3420303 18.1658844,32.786698 Z M25.4945212,27.2542038 C26.2315371,27.2542038 26.8232259,27.8436471 26.8232259,28.577866 C26.8232259,29.3120848 26.2315371,29.9015281 25.4945212,29.9015281 C24.7575053,29.9015281 24.1658165,29.3120848 24.1658165,28.577866 C24.1658165,27.8436471 24.7575053,27.2542038 25.4945212,27.2542038 Z" id="Shape" fill="#2254A7"></path>
                    <path d="M16.3596765,21.4321585 C16.8787017,21.4321585 17.3043025,21.008173 17.3043025,20.4911174 L17.3043025,17.9472042 C17.3043025,17.6886764 17.418488,17.4508309 17.6157176,17.2853731 C19.8475263,15.4549965 22.266184,14.2450866 22.7229263,14.0175822 C23.0966245,13.8314422 23.3457566,13.4488211 23.3457566,13.0248355 L23.3457566,9.44681124 C23.3457566,9.13657792 23.190049,8.83668571 22.9305364,8.67122794 C22.7229263,8.5367935 22.5983602,8.30928907 22.5983602,8.06110241 L22.5983602,4.35898479 C22.5983602,3.03532263 23.6779328,1.95984712 25.0066375,1.95984712 L25.8059364,1.95984712 C27.1346411,1.95984712 28.2142136,3.03532263 28.2142136,4.35898479 L28.2142136,8.06110241 C28.2142136,8.30928907 28.0896475,8.5367935 27.8820374,8.67122794 C27.6225248,8.84702682 27.4668172,9.13657792 27.4668172,9.44681124 L27.4668172,13.0248355 C27.4668172,13.4488211 27.7159494,13.8314422 28.0896475,14.0175822 C28.5567703,14.2450866 30.975428,15.4549965 33.1968562,17.2853731 C33.3940858,17.4508309 33.5082714,17.6886764 33.5082714,17.9472042 L33.5082714,20.4911174 C33.5082714,21.008173 33.9338721,21.4321585 34.4528973,21.4321585 C34.9719226,21.4321585 35.3975233,21.008173 35.3975233,20.4911174 L35.3975233,17.9472042 C35.3975233,17.1199154 35.0342056,16.3546732 34.4009948,15.8376176 C32.4286988,14.2140633 30.3110757,13.0455178 29.3560692,12.5491444 L29.3560692,9.88113789 C29.8335725,9.39510569 30.1034656,8.74361572 30.1034656,8.0507613 L30.1034656,4.35898479 C30.1034656,2.00121156 28.1726916,0.077764977 25.8059364,0.077764977 L25.0066375,0.077764977 C22.6398822,0.077764977 20.7091082,1.99087045 20.7091082,4.35898479 L20.7091082,8.06110241 C20.7091082,8.75395683 20.9790014,9.4054468 21.4565046,9.891479 L21.4565046,12.5594856 C20.5014981,13.0558589 18.3942555,14.2244044 16.411579,15.8479587 C15.7783682,16.3650143 15.4150505,17.1405976 15.4150505,17.9575453 L15.4150505,20.5014585 C15.425431,21.0185141 15.8406512,21.4321585 16.3596765,21.4321585 Z" id="Shape" fill="#2254A7"></path>
                    <path d="M36.8923161,35.9510779 C35.9373096,36.4474512 33.830067,37.6159967 31.8473905,39.2395511 C31.2141797,39.7566066 30.850862,40.5321899 30.850862,41.3491377 L30.850862,43.8930509 C30.850862,44.4101064 31.2764627,44.834092 31.795488,44.834092 C32.3145132,44.834092 32.740114,44.4101064 32.740114,43.8930509 L32.740114,41.3491377 C32.740114,41.0906099 32.8542995,40.8527643 33.0515291,40.6873066 C35.2833378,38.85693 37.7019955,37.64702 38.1587378,37.4195156 C38.5428165,37.2333756 38.7815681,36.8507545 38.7815681,36.426769 L38.7815681,32.8487447 C38.7815681,32.5385114 38.6258605,32.2386192 38.3663479,32.0731614 C38.1587378,31.9387269 38.0341717,31.7112225 38.0341717,31.4630359 L38.0341717,27.7609182 C38.0341717,26.4372561 39.1137443,25.3617806 40.4424489,25.3617806 L41.2417479,25.3617806 C42.5704526,25.3617806 43.6500251,26.4372561 43.6500251,27.7609182 L43.6500251,31.4630359 C43.6500251,31.7112225 43.525459,31.9387269 43.3178489,32.0731614 C43.0583363,32.2489603 42.9026287,32.5385114 42.9026287,32.8487447 L42.9026287,36.426769 C42.9026287,36.8507545 43.1413803,37.2333756 43.525459,37.4195156 C43.9925818,37.64702 46.4112395,38.85693 48.6326677,40.6873066 C48.8298973,40.8527643 48.9440829,41.0906099 48.9440829,41.3491377 L48.9440829,43.8930509 C48.9440829,44.4101064 49.3696836,44.834092 49.8887088,44.834092 C50.4077341,44.834092 50.8333348,44.4101064 50.8333348,43.8930509 L50.8333348,41.3491377 C50.8333348,40.5218488 50.4700171,39.7566066 49.8368063,39.2395511 C47.8541298,37.6159967 45.7468872,36.4474512 44.7918807,35.9510779 L44.7918807,33.2830713 C45.2693839,32.7970391 45.5392771,32.1455492 45.5392771,31.4526947 L45.5392771,27.7505771 C45.5392771,25.3928039 43.6085031,23.4693573 41.2417479,23.4693573 L40.4424489,23.4693573 C38.0756937,23.4693573 36.1449197,25.3928039 36.1449197,27.7505771 L36.1449197,31.4526947 C36.1449197,32.1455492 36.4148129,32.7970391 36.8923161,33.2830713 L36.8923161,35.9510779 L36.8923161,35.9510779 Z" id="Shape" fill="#2254A7"></path>
                    <path d="M0.944625989,44.8237508 C1.46365126,44.8237508 1.88925198,44.3997653 1.88925198,43.8827098 L1.88925198,41.3387965 C1.88925198,41.0802688 2.00343754,40.8424232 2.20066714,40.6769655 C4.4324758,38.8465889 6.85113355,37.6366789 7.30787579,37.4091745 C7.69195448,37.2230345 7.93070611,36.8404134 7.93070611,36.4164279 L7.93070611,32.8384036 C7.93070611,32.5281703 7.77499853,32.228278 7.51548589,32.0628203 C7.30787579,31.9283858 7.18330972,31.7008814 7.18330972,31.4526947 L7.18330972,27.7505771 C7.18330972,26.426915 8.26288228,25.3514395 9.59158697,25.3514395 L10.3908859,25.3514395 C11.7195906,25.3514395 12.7991631,26.426915 12.7991631,27.7505771 L12.7991631,31.4526947 C12.7991631,31.7008814 12.6745971,31.9283858 12.466987,32.0628203 C12.2074743,32.2386192 12.0517667,32.5281703 12.0517667,32.8384036 L12.0517667,36.4164279 C12.0517667,36.8404134 12.2905184,37.2230345 12.6745971,37.4091745 C13.1417198,37.6366789 15.5603776,38.8465889 17.7818057,40.6769655 C17.9790353,40.8424232 18.0932209,41.0802688 18.0932209,41.3387965 L18.0932209,43.8827098 C18.0932209,44.3997653 18.5188216,44.8237508 19.0378469,44.8237508 C19.5568721,44.8237508 19.9824729,44.3997653 19.9824729,43.8827098 L19.9824729,41.3387965 C19.9824729,40.5115077 19.6191552,39.7462655 18.9859443,39.22921 C17.0032678,37.6056556 14.8960252,36.4371101 13.9410187,35.9407368 L13.9410187,33.2727302 C14.418522,32.786698 14.6884151,32.1352081 14.6884151,31.4423536 L14.6884151,27.740236 C14.6884151,25.3824628 12.7576411,23.4590162 10.3908859,23.4590162 L9.59158697,23.4590162 C7.22483174,23.4590162 5.29405774,25.3824628 5.29405774,27.740236 L5.29405774,31.4423536 C5.29405774,32.1352081 5.56395088,32.786698 6.04145413,33.2727302 L6.04145413,35.9407368 C5.08644763,36.4371101 2.97920504,37.6056556 0.996528516,39.22921 C0.363317688,39.7462655 0,40.5218488 0,41.3387965 L0,43.8827098 C5.53184452e-16,44.4101064 0.42560072,44.8237508 0.944625989,44.8237508 Z" id="Shape" fill="#2254A7"></path>
                </g>
            </g>
        </g>
    </g>
</svg>